<mxfile host="app.diagrams.net" modified="2024-04-13T03:45:03.011Z" agent="Mozilla/5.0 (Windows NT 10.0; Win64; x64) AppleWebKit/537.36 (KHTML, like Gecko) Chrome/122.0.0.0 Safari/537.36" etag="57YCe-ANjoLMdW3CjuhG" version="24.2.5" type="github">
  <diagram id="C5RBs43oDa-KdzZeNtuy" name="Page-1">
    <mxGraphModel dx="1050" dy="522" grid="1" gridSize="10" guides="1" tooltips="1" connect="1" arrows="1" fold="1" page="1" pageScale="1" pageWidth="827" pageHeight="1169" math="0" shadow="0">
      <root>
        <mxCell id="WIyWlLk6GJQsqaUBKTNV-0" />
        <mxCell id="WIyWlLk6GJQsqaUBKTNV-1" parent="WIyWlLk6GJQsqaUBKTNV-0" />
        <mxCell id="WIyWlLk6GJQsqaUBKTNV-2" value="" style="rounded=0;html=1;jettySize=auto;orthogonalLoop=1;fontSize=11;endArrow=block;endFill=0;endSize=8;strokeWidth=1;shadow=0;labelBackgroundColor=none;edgeStyle=orthogonalEdgeStyle;" parent="WIyWlLk6GJQsqaUBKTNV-1" source="WIyWlLk6GJQsqaUBKTNV-3" target="WIyWlLk6GJQsqaUBKTNV-6" edge="1">
          <mxGeometry relative="1" as="geometry" />
        </mxCell>
        <mxCell id="WIyWlLk6GJQsqaUBKTNV-3" value="Lamp doesn&#39;t work" style="rounded=1;whiteSpace=wrap;html=1;fontSize=12;glass=0;strokeWidth=1;shadow=0;" parent="WIyWlLk6GJQsqaUBKTNV-1" vertex="1">
          <mxGeometry x="160" y="80" width="120" height="40" as="geometry" />
        </mxCell>
        <mxCell id="WIyWlLk6GJQsqaUBKTNV-4" value="Yes" style="rounded=0;html=1;jettySize=auto;orthogonalLoop=1;fontSize=11;endArrow=block;endFill=0;endSize=8;strokeWidth=1;shadow=0;labelBackgroundColor=none;edgeStyle=orthogonalEdgeStyle;" parent="WIyWlLk6GJQsqaUBKTNV-1" source="WIyWlLk6GJQsqaUBKTNV-6" target="WIyWlLk6GJQsqaUBKTNV-10" edge="1">
          <mxGeometry y="20" relative="1" as="geometry">
            <mxPoint as="offset" />
          </mxGeometry>
        </mxCell>
        <mxCell id="WIyWlLk6GJQsqaUBKTNV-5" value="No" style="edgeStyle=orthogonalEdgeStyle;rounded=0;html=1;jettySize=auto;orthogonalLoop=1;fontSize=11;endArrow=block;endFill=0;endSize=8;strokeWidth=1;shadow=0;labelBackgroundColor=none;" parent="WIyWlLk6GJQsqaUBKTNV-1" source="WIyWlLk6GJQsqaUBKTNV-6" target="WIyWlLk6GJQsqaUBKTNV-7" edge="1">
          <mxGeometry y="10" relative="1" as="geometry">
            <mxPoint as="offset" />
          </mxGeometry>
        </mxCell>
        <mxCell id="WIyWlLk6GJQsqaUBKTNV-6" value="Lamp&lt;br&gt;plugged in?" style="rhombus;whiteSpace=wrap;html=1;shadow=0;fontFamily=Helvetica;fontSize=12;align=center;strokeWidth=1;spacing=6;spacingTop=-4;" parent="WIyWlLk6GJQsqaUBKTNV-1" vertex="1">
          <mxGeometry x="170" y="170" width="100" height="80" as="geometry" />
        </mxCell>
        <mxCell id="WIyWlLk6GJQsqaUBKTNV-7" value="Plug in lamp" style="rounded=1;whiteSpace=wrap;html=1;fontSize=12;glass=0;strokeWidth=1;shadow=0;" parent="WIyWlLk6GJQsqaUBKTNV-1" vertex="1">
          <mxGeometry x="320" y="190" width="120" height="40" as="geometry" />
        </mxCell>
        <mxCell id="WIyWlLk6GJQsqaUBKTNV-8" value="No" style="rounded=0;html=1;jettySize=auto;orthogonalLoop=1;fontSize=11;endArrow=block;endFill=0;endSize=8;strokeWidth=1;shadow=0;labelBackgroundColor=none;edgeStyle=orthogonalEdgeStyle;" parent="WIyWlLk6GJQsqaUBKTNV-1" source="WIyWlLk6GJQsqaUBKTNV-10" target="WIyWlLk6GJQsqaUBKTNV-11" edge="1">
          <mxGeometry x="0.3333" y="20" relative="1" as="geometry">
            <mxPoint as="offset" />
          </mxGeometry>
        </mxCell>
        <mxCell id="WIyWlLk6GJQsqaUBKTNV-9" value="Yes" style="edgeStyle=orthogonalEdgeStyle;rounded=0;html=1;jettySize=auto;orthogonalLoop=1;fontSize=11;endArrow=block;endFill=0;endSize=8;strokeWidth=1;shadow=0;labelBackgroundColor=none;" parent="WIyWlLk6GJQsqaUBKTNV-1" source="WIyWlLk6GJQsqaUBKTNV-10" target="WIyWlLk6GJQsqaUBKTNV-12" edge="1">
          <mxGeometry y="10" relative="1" as="geometry">
            <mxPoint as="offset" />
          </mxGeometry>
        </mxCell>
        <mxCell id="WIyWlLk6GJQsqaUBKTNV-10" value="Bulb&lt;br&gt;burned out?" style="rhombus;whiteSpace=wrap;html=1;shadow=0;fontFamily=Helvetica;fontSize=12;align=center;strokeWidth=1;spacing=6;spacingTop=-4;" parent="WIyWlLk6GJQsqaUBKTNV-1" vertex="1">
          <mxGeometry x="170" y="290" width="100" height="80" as="geometry" />
        </mxCell>
        <mxCell id="WIyWlLk6GJQsqaUBKTNV-11" value="Repair Lamp" style="rounded=1;whiteSpace=wrap;html=1;fontSize=12;glass=0;strokeWidth=1;shadow=0;" parent="WIyWlLk6GJQsqaUBKTNV-1" vertex="1">
          <mxGeometry x="160" y="430" width="120" height="40" as="geometry" />
        </mxCell>
        <mxCell id="WIyWlLk6GJQsqaUBKTNV-12" value="Replace Bulb" style="rounded=1;whiteSpace=wrap;html=1;fontSize=12;glass=0;strokeWidth=1;shadow=0;" parent="WIyWlLk6GJQsqaUBKTNV-1" vertex="1">
          <mxGeometry x="320" y="310" width="120" height="40" as="geometry" />
        </mxCell>
        <mxCell id="UH3HASXR_orp1yrJj42_-0" value="初始数据输入" style="whiteSpace=wrap;strokeWidth=2;" vertex="1" parent="WIyWlLk6GJQsqaUBKTNV-1">
          <mxGeometry x="451" y="490" width="112" height="33" as="geometry" />
        </mxCell>
        <mxCell id="UH3HASXR_orp1yrJj42_-1" value="splitter.py" style="whiteSpace=wrap;strokeWidth=2;" vertex="1" parent="WIyWlLk6GJQsqaUBKTNV-1">
          <mxGeometry x="462" y="592" width="89" height="33" as="geometry" />
        </mxCell>
        <mxCell id="UH3HASXR_orp1yrJj42_-2" value="正则表达式+关键字匹配" style="rhombus;strokeWidth=2;whiteSpace=wrap;" vertex="1" parent="WIyWlLk6GJQsqaUBKTNV-1">
          <mxGeometry x="397" y="675" width="218" height="218" as="geometry" />
        </mxCell>
        <mxCell id="UH3HASXR_orp1yrJj42_-3" value="键值对处理" style="whiteSpace=wrap;strokeWidth=2;" vertex="1" parent="WIyWlLk6GJQsqaUBKTNV-1">
          <mxGeometry x="458" y="962" width="97" height="33" as="geometry" />
        </mxCell>
        <mxCell id="UH3HASXR_orp1yrJj42_-4" value="thesis.py" style="whiteSpace=wrap;strokeWidth=2;" vertex="1" parent="WIyWlLk6GJQsqaUBKTNV-1">
          <mxGeometry x="160" y="1045" width="80" height="33" as="geometry" />
        </mxCell>
        <mxCell id="UH3HASXR_orp1yrJj42_-5" value="patent.py" style="whiteSpace=wrap;strokeWidth=2;" vertex="1" parent="WIyWlLk6GJQsqaUBKTNV-1">
          <mxGeometry x="290" y="1045" width="86" height="33" as="geometry" />
        </mxCell>
        <mxCell id="UH3HASXR_orp1yrJj42_-6" value="research_project.py" style="whiteSpace=wrap;strokeWidth=2;" vertex="1" parent="WIyWlLk6GJQsqaUBKTNV-1">
          <mxGeometry x="426" y="1045" width="161" height="33" as="geometry" />
        </mxCell>
        <mxCell id="UH3HASXR_orp1yrJj42_-7" value="publication.py" style="whiteSpace=wrap;strokeWidth=2;" vertex="1" parent="WIyWlLk6GJQsqaUBKTNV-1">
          <mxGeometry x="637" y="1045" width="119" height="33" as="geometry" />
        </mxCell>
        <mxCell id="UH3HASXR_orp1yrJj42_-8" value="teaching_achievement.py" style="whiteSpace=wrap;strokeWidth=2;" vertex="1" parent="WIyWlLk6GJQsqaUBKTNV-1">
          <mxGeometry x="806" y="1045" width="200" height="33" as="geometry" />
        </mxCell>
        <mxCell id="UH3HASXR_orp1yrJj42_-9" value="结构化数据" style="whiteSpace=wrap;strokeWidth=2;" vertex="1" parent="WIyWlLk6GJQsqaUBKTNV-1">
          <mxGeometry x="458" y="1147" width="97" height="33" as="geometry" />
        </mxCell>
        <mxCell id="UH3HASXR_orp1yrJj42_-10" value="DatabaseHandler" style="whiteSpace=wrap;strokeWidth=2;" vertex="1" parent="WIyWlLk6GJQsqaUBKTNV-1">
          <mxGeometry x="1070" y="1249" width="138" height="33" as="geometry" />
        </mxCell>
        <mxCell id="UH3HASXR_orp1yrJj42_-11" value="初始数据输入" style="whiteSpace=wrap;strokeWidth=2;" vertex="1" parent="WIyWlLk6GJQsqaUBKTNV-1">
          <mxGeometry x="1083" y="490" width="112" height="33" as="geometry" />
        </mxCell>
        <mxCell id="UH3HASXR_orp1yrJj42_-12" value="work_exper_annotation.py" style="whiteSpace=wrap;strokeWidth=2;" vertex="1" parent="WIyWlLk6GJQsqaUBKTNV-1">
          <mxGeometry x="1034" y="592" width="209" height="33" as="geometry" />
        </mxCell>
        <mxCell id="UH3HASXR_orp1yrJj42_-13" value="数据标注" style="whiteSpace=wrap;strokeWidth=2;" vertex="1" parent="WIyWlLk6GJQsqaUBKTNV-1">
          <mxGeometry x="1099" y="768" width="80" height="33" as="geometry" />
        </mxCell>
        <mxCell id="UH3HASXR_orp1yrJj42_-14" value="model_train.py" style="whiteSpace=wrap;strokeWidth=2;" vertex="1" parent="WIyWlLk6GJQsqaUBKTNV-1">
          <mxGeometry x="1076" y="962" width="125" height="33" as="geometry" />
        </mxCell>
        <mxCell id="UH3HASXR_orp1yrJj42_-15" value="model_prediction.py" style="whiteSpace=wrap;strokeWidth=2;" vertex="1" parent="WIyWlLk6GJQsqaUBKTNV-1">
          <mxGeometry x="1056" y="1045" width="165" height="33" as="geometry" />
        </mxCell>
        <mxCell id="UH3HASXR_orp1yrJj42_-16" value="存储结构化信息" style="whiteSpace=wrap;strokeWidth=2;" vertex="1" parent="WIyWlLk6GJQsqaUBKTNV-1">
          <mxGeometry x="1075" y="1147" width="129" height="33" as="geometry" />
        </mxCell>
        <mxCell id="UH3HASXR_orp1yrJj42_-17" value="数据库交互管理" style="whiteSpace=wrap;strokeWidth=2;" vertex="1" parent="WIyWlLk6GJQsqaUBKTNV-1">
          <mxGeometry x="1075" y="1332" width="129" height="33" as="geometry" />
        </mxCell>
        <mxCell id="UH3HASXR_orp1yrJj42_-18" value="最终数据输出" style="whiteSpace=wrap;strokeWidth=2;" vertex="1" parent="WIyWlLk6GJQsqaUBKTNV-1">
          <mxGeometry x="1083" y="1416" width="111" height="33" as="geometry" />
        </mxCell>
        <mxCell id="UH3HASXR_orp1yrJj42_-19" value="初始数据输入" style="whiteSpace=wrap;strokeWidth=2;" vertex="1" parent="WIyWlLk6GJQsqaUBKTNV-1">
          <mxGeometry x="1283" y="768" width="112" height="33" as="geometry" />
        </mxCell>
        <mxCell id="UH3HASXR_orp1yrJj42_-20" value="ERNIE_API" style="whiteSpace=wrap;strokeWidth=2;" vertex="1" parent="WIyWlLk6GJQsqaUBKTNV-1">
          <mxGeometry x="1295" y="962" width="87" height="33" as="geometry" />
        </mxCell>
        <mxCell id="UH3HASXR_orp1yrJj42_-21" value="chat_completion" style="whiteSpace=wrap;strokeWidth=2;" vertex="1" parent="WIyWlLk6GJQsqaUBKTNV-1">
          <mxGeometry x="1271" y="1045" width="135" height="33" as="geometry" />
        </mxCell>
        <mxCell id="UH3HASXR_orp1yrJj42_-22" value="数据处理与存储" style="whiteSpace=wrap;strokeWidth=2;" vertex="1" parent="WIyWlLk6GJQsqaUBKTNV-1">
          <mxGeometry x="1274" y="1147" width="129" height="33" as="geometry" />
        </mxCell>
        <mxCell id="UH3HASXR_orp1yrJj42_-23" value="读取教师数据" style="curved=1;startArrow=none;endArrow=block;exitX=0.495361396244594;exitY=1.0121212583599668;entryX=0.49978063347634305;entryY=-0.0060605713815400095;rounded=0;" edge="1" parent="WIyWlLk6GJQsqaUBKTNV-1" source="UH3HASXR_orp1yrJj42_-0" target="UH3HASXR_orp1yrJj42_-1">
          <mxGeometry relative="1" as="geometry">
            <Array as="points" />
          </mxGeometry>
        </mxCell>
        <mxCell id="UH3HASXR_orp1yrJj42_-24" value="" style="curved=1;startArrow=none;endArrow=block;exitX=0.49978063347634305;exitY=1.0060606869784268;entryX=0.5022040200889657;entryY=0.0009174434416884676;rounded=0;" edge="1" parent="WIyWlLk6GJQsqaUBKTNV-1" source="UH3HASXR_orp1yrJj42_-1" target="UH3HASXR_orp1yrJj42_-2">
          <mxGeometry relative="1" as="geometry">
            <Array as="points" />
          </mxGeometry>
        </mxCell>
        <mxCell id="UH3HASXR_orp1yrJj42_-25" value="生成键值对" style="curved=1;startArrow=none;endArrow=block;exitX=0.5022040200889657;exitY=1.0027093012398536;entryX=0.4997987255607684;entryY=-0.0002840215509588068;rounded=0;" edge="1" parent="WIyWlLk6GJQsqaUBKTNV-1" source="UH3HASXR_orp1yrJj42_-2" target="UH3HASXR_orp1yrJj42_-3">
          <mxGeometry relative="1" as="geometry">
            <Array as="points" />
          </mxGeometry>
        </mxCell>
        <mxCell id="UH3HASXR_orp1yrJj42_-26" value="" style="curved=1;startArrow=none;endArrow=block;exitX=0.0018605890962266431;exitY=0.7048933437540138;entryX=0.4994824409484863;entryY=0.011837236809008049;rounded=0;" edge="1" parent="WIyWlLk6GJQsqaUBKTNV-1" source="UH3HASXR_orp1yrJj42_-3" target="UH3HASXR_orp1yrJj42_-4">
          <mxGeometry relative="1" as="geometry">
            <Array as="points">
              <mxPoint x="200" y="1020" />
            </Array>
          </mxGeometry>
        </mxCell>
        <mxCell id="UH3HASXR_orp1yrJj42_-27" value="" style="curved=1;startArrow=none;endArrow=block;exitX=0.0018605890962266431;exitY=0.8574937203788219;entryX=0.49941865787949674;entryY=0.011837236809008049;rounded=0;" edge="1" parent="WIyWlLk6GJQsqaUBKTNV-1" source="UH3HASXR_orp1yrJj42_-3" target="UH3HASXR_orp1yrJj42_-5">
          <mxGeometry relative="1" as="geometry">
            <Array as="points">
              <mxPoint x="333" y="1020" />
            </Array>
          </mxGeometry>
        </mxCell>
        <mxCell id="UH3HASXR_orp1yrJj42_-28" value="" style="curved=1;startArrow=none;endArrow=block;exitX=0.4997987255607684;exitY=1.011837236809008;entryX=0.49987873527574245;entryY=0.011837236809008049;rounded=0;" edge="1" parent="WIyWlLk6GJQsqaUBKTNV-1" source="UH3HASXR_orp1yrJj42_-3" target="UH3HASXR_orp1yrJj42_-6">
          <mxGeometry relative="1" as="geometry">
            <Array as="points" />
          </mxGeometry>
        </mxCell>
        <mxCell id="UH3HASXR_orp1yrJj42_-29" value="" style="curved=1;startArrow=none;endArrow=block;exitX=0.9977368620253101;exitY=0.8270075891953907;entryX=0.4998293964802718;entryY=0.011837236809008049;rounded=0;" edge="1" parent="WIyWlLk6GJQsqaUBKTNV-1" source="UH3HASXR_orp1yrJj42_-3" target="UH3HASXR_orp1yrJj42_-7">
          <mxGeometry relative="1" as="geometry">
            <Array as="points">
              <mxPoint x="696" y="1020" />
            </Array>
          </mxGeometry>
        </mxCell>
        <mxCell id="UH3HASXR_orp1yrJj42_-30" value="" style="curved=1;startArrow=none;endArrow=block;exitX=0.9977368620253101;exitY=0.6584611940617323;entryX=0.5010860061645508;entryY=0.011837236809008049;rounded=0;" edge="1" parent="WIyWlLk6GJQsqaUBKTNV-1" source="UH3HASXR_orp1yrJj42_-3" target="UH3HASXR_orp1yrJj42_-8">
          <mxGeometry relative="1" as="geometry">
            <Array as="points">
              <mxPoint x="906" y="1020" />
            </Array>
          </mxGeometry>
        </mxCell>
        <mxCell id="UH3HASXR_orp1yrJj42_-31" value="" style="curved=1;startArrow=none;endArrow=block;exitX=0.4994824409484863;exitY=1.0239584951689749;entryX=0.0018605890962266431;entryY=0.268790728725731;rounded=0;" edge="1" parent="WIyWlLk6GJQsqaUBKTNV-1" source="UH3HASXR_orp1yrJj42_-4" target="UH3HASXR_orp1yrJj42_-9">
          <mxGeometry relative="1" as="geometry">
            <Array as="points">
              <mxPoint x="200" y="1113" />
            </Array>
          </mxGeometry>
        </mxCell>
        <mxCell id="UH3HASXR_orp1yrJj42_-32" value="" style="curved=1;startArrow=none;endArrow=block;exitX=0.49941865787949674;exitY=1.0239584951689749;entryX=0.0018605890962266431;entryY=0.08252312403963268;rounded=0;" edge="1" parent="WIyWlLk6GJQsqaUBKTNV-1" source="UH3HASXR_orp1yrJj42_-5" target="UH3HASXR_orp1yrJj42_-9">
          <mxGeometry relative="1" as="geometry">
            <Array as="points">
              <mxPoint x="333" y="1113" />
            </Array>
          </mxGeometry>
        </mxCell>
        <mxCell id="UH3HASXR_orp1yrJj42_-33" value="" style="curved=1;startArrow=none;endArrow=block;exitX=0.49987873527574245;exitY=1.0239584951689749;entryX=0.4997987255607684;entryY=0.0057766654274680395;rounded=0;" edge="1" parent="WIyWlLk6GJQsqaUBKTNV-1" source="UH3HASXR_orp1yrJj42_-6" target="UH3HASXR_orp1yrJj42_-9">
          <mxGeometry relative="1" as="geometry">
            <Array as="points" />
          </mxGeometry>
        </mxCell>
        <mxCell id="UH3HASXR_orp1yrJj42_-34" value="" style="curved=1;startArrow=none;endArrow=block;exitX=0.4998293964802718;exitY=1.0239584951689749;entryX=0.9977368620253101;entryY=0.11973521196026385;rounded=0;" edge="1" parent="WIyWlLk6GJQsqaUBKTNV-1" source="UH3HASXR_orp1yrJj42_-7" target="UH3HASXR_orp1yrJj42_-9">
          <mxGeometry relative="1" as="geometry">
            <Array as="points">
              <mxPoint x="696" y="1113" />
            </Array>
          </mxGeometry>
        </mxCell>
        <mxCell id="UH3HASXR_orp1yrJj42_-35" value="" style="curved=1;startArrow=none;endArrow=block;exitX=0.5010860061645508;exitY=1.0239584951689749;entryX=0.9977368620253101;entryY=0.32546690145151885;rounded=0;" edge="1" parent="WIyWlLk6GJQsqaUBKTNV-1" source="UH3HASXR_orp1yrJj42_-8" target="UH3HASXR_orp1yrJj42_-9">
          <mxGeometry relative="1" as="geometry">
            <Array as="points">
              <mxPoint x="906" y="1113" />
            </Array>
          </mxGeometry>
        </mxCell>
        <mxCell id="UH3HASXR_orp1yrJj42_-36" value="存入数据库" style="curved=1;startArrow=none;endArrow=block;exitX=0.4997987255607684;exitY=1.0178979237874348;entryX=-0.0002319778221240942;entryY=0.3378688740551338;rounded=0;" edge="1" parent="WIyWlLk6GJQsqaUBKTNV-1" source="UH3HASXR_orp1yrJj42_-9" target="UH3HASXR_orp1yrJj42_-10">
          <mxGeometry relative="1" as="geometry">
            <Array as="points">
              <mxPoint x="506" y="1215" />
            </Array>
          </mxGeometry>
        </mxCell>
        <mxCell id="UH3HASXR_orp1yrJj42_-37" value="读取教师数据" style="curved=1;startArrow=none;endArrow=block;exitX=0.4982353619166783;exitY=1.0121212583599668;entryX=0.5014467011228132;entryY=-0.0060605713815400095;rounded=0;" edge="1" parent="WIyWlLk6GJQsqaUBKTNV-1" source="UH3HASXR_orp1yrJj42_-11" target="UH3HASXR_orp1yrJj42_-12">
          <mxGeometry relative="1" as="geometry">
            <Array as="points" />
          </mxGeometry>
        </mxCell>
        <mxCell id="UH3HASXR_orp1yrJj42_-38" value="" style="curved=1;startArrow=none;endArrow=block;exitX=0.5014467011228132;exitY=1.0060606869784268;entryX=0.4975295066833496;entryY=-0.009232896747011127;rounded=0;" edge="1" parent="WIyWlLk6GJQsqaUBKTNV-1" source="UH3HASXR_orp1yrJj42_-12" target="UH3HASXR_orp1yrJj42_-13">
          <mxGeometry relative="1" as="geometry">
            <Array as="points" />
          </mxGeometry>
        </mxCell>
        <mxCell id="UH3HASXR_orp1yrJj42_-39" value="" style="curved=1;startArrow=none;endArrow=block;exitX=0.4975295066833496;exitY=1.0028883616129558;entryX=0.5024188842773437;entryY=-0.0002840215509588068;rounded=0;" edge="1" parent="WIyWlLk6GJQsqaUBKTNV-1" source="UH3HASXR_orp1yrJj42_-13" target="UH3HASXR_orp1yrJj42_-14">
          <mxGeometry relative="1" as="geometry">
            <Array as="points" />
          </mxGeometry>
        </mxCell>
        <mxCell id="UH3HASXR_orp1yrJj42_-40" value="" style="curved=1;startArrow=none;endArrow=block;exitX=0.5024188842773437;exitY=1.011837236809008;entryX=0.5018324880888968;entryY=0.011837236809008049;rounded=0;" edge="1" parent="WIyWlLk6GJQsqaUBKTNV-1" source="UH3HASXR_orp1yrJj42_-14" target="UH3HASXR_orp1yrJj42_-15">
          <mxGeometry relative="1" as="geometry">
            <Array as="points" />
          </mxGeometry>
        </mxCell>
        <mxCell id="UH3HASXR_orp1yrJj42_-41" value="提取实体和关系" style="curved=1;startArrow=none;endArrow=block;exitX=0.5018324880888968;exitY=1.0239584951689749;entryX=0.49459194212920904;entryY=0.0057766654274680395;rounded=0;" edge="1" parent="WIyWlLk6GJQsqaUBKTNV-1" source="UH3HASXR_orp1yrJj42_-15" target="UH3HASXR_orp1yrJj42_-16">
          <mxGeometry relative="1" as="geometry">
            <Array as="points" />
          </mxGeometry>
        </mxCell>
        <mxCell id="UH3HASXR_orp1yrJj42_-42" value="存入数据库" style="curved=1;startArrow=none;endArrow=block;exitX=0.49459194212920904;exitY=1.0178979237874348;entryX=0.4985678299613621;entryY=-0.0002839059540719697;rounded=0;" edge="1" parent="WIyWlLk6GJQsqaUBKTNV-1" source="UH3HASXR_orp1yrJj42_-16" target="UH3HASXR_orp1yrJj42_-10">
          <mxGeometry relative="1" as="geometry">
            <Array as="points" />
          </mxGeometry>
        </mxCell>
        <mxCell id="UH3HASXR_orp1yrJj42_-43" value="" style="curved=1;startArrow=none;endArrow=block;exitX=0.4985678299613621;exitY=1.0118373524058948;entryX=0.49459194212920904;entryY=0.011837352405894886;rounded=0;" edge="1" parent="WIyWlLk6GJQsqaUBKTNV-1" source="UH3HASXR_orp1yrJj42_-10" target="UH3HASXR_orp1yrJj42_-17">
          <mxGeometry relative="1" as="geometry">
            <Array as="points" />
          </mxGeometry>
        </mxCell>
        <mxCell id="UH3HASXR_orp1yrJj42_-44" value="" style="curved=1;startArrow=none;endArrow=block;exitX=0.49459194212920904;exitY=1.0239586107658618;entryX=0.5027239687807925;entryY=-0.006344419537168561;rounded=0;" edge="1" parent="WIyWlLk6GJQsqaUBKTNV-1" source="UH3HASXR_orp1yrJj42_-17" target="UH3HASXR_orp1yrJj42_-18">
          <mxGeometry relative="1" as="geometry">
            <Array as="points" />
          </mxGeometry>
        </mxCell>
        <mxCell id="UH3HASXR_orp1yrJj42_-45" value="读取教师数据" style="curved=1;startArrow=none;endArrow=block;exitX=0.49772616795131136;exitY=1.0028883616129558;entryX=0.502819894374102;entryY=-0.0002840215509588068;rounded=0;" edge="1" parent="WIyWlLk6GJQsqaUBKTNV-1" source="UH3HASXR_orp1yrJj42_-19" target="UH3HASXR_orp1yrJj42_-20">
          <mxGeometry relative="1" as="geometry">
            <Array as="points" />
          </mxGeometry>
        </mxCell>
        <mxCell id="UH3HASXR_orp1yrJj42_-46" value="" style="curved=1;startArrow=none;endArrow=block;exitX=0.502819894374102;exitY=1.011837236809008;entryX=0.5018172652633102;entryY=0.011837236809008049;rounded=0;" edge="1" parent="WIyWlLk6GJQsqaUBKTNV-1" source="UH3HASXR_orp1yrJj42_-20" target="UH3HASXR_orp1yrJj42_-21">
          <mxGeometry relative="1" as="geometry">
            <Array as="points" />
          </mxGeometry>
        </mxCell>
        <mxCell id="UH3HASXR_orp1yrJj42_-47" value="提取信息" style="curved=1;startArrow=none;endArrow=block;exitX=0.5018172652633102;exitY=1.0239584951689749;entryX=0.5019017892290455;entryY=0.0057766654274680395;rounded=0;" edge="1" parent="WIyWlLk6GJQsqaUBKTNV-1" source="UH3HASXR_orp1yrJj42_-21" target="UH3HASXR_orp1yrJj42_-22">
          <mxGeometry relative="1" as="geometry">
            <Array as="points" />
          </mxGeometry>
        </mxCell>
        <mxCell id="UH3HASXR_orp1yrJj42_-48" value="存入数据库" style="curved=1;startArrow=none;endArrow=block;exitX=0.5019017892290455;exitY=1.0178979237874348;entryX=0.9739312476622892;entryY=-0.0002839059540719697;rounded=0;" edge="1" parent="WIyWlLk6GJQsqaUBKTNV-1" source="UH3HASXR_orp1yrJj42_-22" target="UH3HASXR_orp1yrJj42_-10">
          <mxGeometry relative="1" as="geometry">
            <Array as="points">
              <mxPoint x="1339" y="1215" />
            </Array>
          </mxGeometry>
        </mxCell>
      </root>
    </mxGraphModel>
  </diagram>
</mxfile>
